<?xml version="1.0" encoding="UTF-8"?>
<svg width="41px" height="48px" viewBox="0 0 41 48" version="1.1" xmlns="http://www.w3.org/2000/svg" xmlns:xlink="http://www.w3.org/1999/xlink">
    <!-- Generator: Sketch 48.2 (47327) - http://www.bohemiancoding.com/sketch -->
    <title>Shape</title>
    <desc>Created with Sketch.</desc>
    <defs></defs>
    <g id="Chat-wih-Jina---key---options-" stroke="none" stroke-width="1" fill="none" fill-rule="evenodd" transform="translate(-221.000000, -827.000000)">
        <g id="Group" transform="translate(59.000000, 827.000000)" fill="#000000" fill-rule="nonzero">
            <path d="M182.423529,48 C185.063529,48 187.223529,45.84 187.223529,43.2 L177.623529,43.2 C177.623529,45.84 179.783529,48 182.423529,48 Z M198.023529,33.6 L198.023529,20.4 C198.023529,12.96 192.983529,6.96 186.023529,5.28 L186.023529,3.6 C186.023529,1.68 184.343529,0 182.423529,0 C180.503529,0 178.823529,1.68 178.823529,3.6 L178.823529,5.28 C171.863529,6.96 166.823529,12.96 166.823529,20.4 L166.823529,33.6 L162.023529,38.4 L162.023529,40.8 L202.823529,40.8 L202.823529,38.4 L198.023529,33.6 Z" id="Shape"></path>
        </g>
    </g>
</svg>