<?xml version="1.0" encoding="UTF-8"?>
<svg width="32px" height="48px" viewBox="0 0 32 48" version="1.1" xmlns="http://www.w3.org/2000/svg" xmlns:xlink="http://www.w3.org/1999/xlink">
    <!-- Generator: Sketch 48.2 (47327) - http://www.bohemiancoding.com/sketch -->
    <title>Shape</title>
    <desc>Created with Sketch.</desc>
    <defs></defs>
    <g id="Chat-wih-Jina---key---options-" stroke="none" stroke-width="1" fill="none" fill-rule="evenodd" transform="translate(-148.000000, -827.000000)">
        <g id="Group" transform="translate(59.000000, 827.000000)" fill="#000000" fill-rule="nonzero">
            <path d="M120.518118,8.11670588 L120.518118,44.7472941 C120.518118,45.8541176 119.885647,46.8028235 118.884235,47.2244706 C117.882824,47.6461176 116.723294,47.4352941 115.985412,46.6447059 L104.759059,35.4710588 L93.5327059,46.6447059 C93.0056471,47.1717647 92.3204706,47.4352941 91.6352941,47.4352941 C91.2663529,47.4352941 90.9501176,47.3825882 90.6338824,47.2244706 C89.6324706,46.8028235 89,45.8541176 89,44.7472941 L89,8.11670588 C89,3.63670588 92.6367059,0 97.1167059,0 L112.401412,0 C116.881412,0 120.518118,3.63670588 120.518118,8.11670588 Z" id="Shape"></path>
        </g>
    </g>
</svg>