<?xml version="1.0" encoding="utf-8"?>
<!-- Generator: Adobe Illustrator 22.0.0, SVG Export Plug-In . SVG Version: 6.00 Build 0)  -->
<svg version="1.1" id="Layer_1" xmlns="http://www.w3.org/2000/svg" xmlns:xlink="http://www.w3.org/1999/xlink" x="0px" y="0px"
	 viewBox="0 0 56 52" style="enable-background:new 0 0 56 52;" xml:space="preserve">
<style type="text/css">
	.st0{fill:#0F90D1;}
</style>
<title>Icon:  Send</title>
<desc>Created with Sketch.</desc>
<g id="Chat-wih-Bot" transform="translate(-659.000000, -1257.000000)">
	<g id="Response" transform="translate(0.000000, 1195.000000)">
		<g id="Icon:--Send">
			<path class="st0" d="M699.9,87.4c-0.4,0.4-1,0.6-1.5,0.6c-0.5,0-1.1-0.2-1.5-0.5l-7.7-6.5v19c0,1.1-1,2-2.2,2
				c-1.2,0-2.2-0.9-2.2-2V81l-7.3,6.5c-0.8,0.8-2.2,0.7-3-0.1c-0.8-0.8-0.8-2.1,0.1-2.8l11.1-9.9c0.8-0.7,2.1-0.7,2.9,0l11.1,9.9
				C700.6,85.4,700.7,86.6,699.9,87.4 M687,62c-15.5,0-28,11.6-28,26c0,14.4,12.5,26,28,26s28-11.6,28-26C715,73.6,702.5,62,687,62"
				/>
		</g>
	</g>
</g>
</svg>
