<?xml version="1.0" encoding="UTF-8"?>
<svg width="48px" height="48px" viewBox="0 0 48 48" version="1.1" xmlns="http://www.w3.org/2000/svg" xmlns:xlink="http://www.w3.org/1999/xlink">
    <!-- Generator: Sketch 48.2 (47327) - http://www.bohemiancoding.com/sketch -->
    <title>Shape</title>
    <desc>Created with Sketch.</desc>
    <defs></defs>
    <g id="Chat-wih-Jina---key---options-" stroke="none" stroke-width="1" fill="none" fill-rule="evenodd" transform="translate(-59.000000, -827.000000)">
        <g id="Group" transform="translate(59.000000, 827.000000)" fill="#000000" fill-rule="nonzero">
            <path d="M41.3681575,26.503937 C41.3681575,25.7811024 41.6091024,25.0582677 41.6091024,24.0944882 C41.6091024,23.1307087 41.6091024,22.407874 41.3681575,21.6850394 L46.428,17.5889764 C46.9098898,17.1070866 46.9098898,16.6251969 46.6689449,16.1433071 L41.8500472,7.71023622 C41.6091024,7.46929134 41.1273071,7.22834646 40.404378,7.46929134 L34.3807559,9.87874016 C33.1760315,8.91496063 31.7303622,8.19212598 30.2846929,7.46929134 L29.3209134,1.20472441 C29.5618583,0.481889764 28.8389291,0 28.3571339,0 L18.7193386,0 C18.2373543,0 17.5146142,0.481889764 17.5146142,0.963779528 L16.5508346,7.46929134 C15.1051654,7.9511811 13.9004409,8.91496063 12.4547717,9.87874016 L6.67209449,7.46929134 C5.94925984,7.22834646 5.46737008,7.46929134 4.98538583,7.9511811 L0.166488189,16.384252 C-0.0744566929,16.6251969 0.166488189,17.3480315 0.648377953,17.8299213 L5.70822047,21.6850394 C5.70822047,22.407874 5.46727559,23.1307087 5.46727559,24.0944882 C5.46727559,25.0582677 5.46727559,25.7811024 5.70822047,26.503937 L0.648377953,30.6 C0.166488189,31.0819843 0.166488189,31.5637795 0.407433071,32.0457638 L5.22633071,40.4788346 C5.46727559,40.7197795 5.94907087,40.9607244 6.672,40.7197795 L12.695622,38.3103307 C13.9003465,39.2741102 15.3460157,39.9969449 16.791685,40.7197795 L17.7554646,46.9843465 C17.7554646,47.4662362 18.2373543,47.948126 18.960189,47.948126 L28.5979843,47.948126 C29.0799685,47.948126 29.8027087,47.4661417 29.8027087,46.9843465 L30.7664882,40.7197795 C32.2121575,39.9969449 33.6578268,39.2741102 34.8625512,38.3103307 L40.8861732,40.7197795 C41.3681575,40.9607244 42.0908976,40.7197795 42.331937,40.2377953 L47.1508346,31.8047244 C47.3917795,31.3228346 47.3917795,30.6 46.9097953,30.3590551 L41.3681575,26.503937 Z M23.5382362,32.5275591 C18.9602835,32.5275591 15.1051654,28.6724409 15.1051654,24.0944882 C15.1051654,19.5165354 18.9602835,15.6614173 23.5382362,15.6614173 C28.116189,15.6614173 31.9713071,19.5165354 31.9713071,24.0944882 C31.9713071,28.6724409 28.116189,32.5275591 23.5382362,32.5275591 Z" id="Shape"></path>
        </g>
    </g>
</svg>